<svg xmlns="http://www.w3.org/2000/svg" version="1.1" xmlns:xlink="http://www.w3.org/1999/xlink" width="1000" height="1000"><g clip-path="url(#SvgjsClipPath1139)"><rect width="1000" height="1000" fill="#ffffff"></rect><g transform="matrix(2,0,0,2,0,0)"><svg xmlns="http://www.w3.org/2000/svg" version="1.1" xmlns:xlink="http://www.w3.org/1999/xlink" width="500" height="500"><svg xmlns="http://www.w3.org/2000/svg" xmlns:xlink="http://www.w3.org/1999/xlink" width="500" zoomAndPan="magnify" viewBox="0 0 375 374.999991" height="500" preserveAspectRatio="xMidYMid meet" version="1.0"><defs><clipPath id="c87afce364"><path d="M 30.3125 26.28125 L 344.5625 26.28125 L 344.5625 348.78125 L 30.3125 348.78125 Z M 30.3125 26.28125 " clip-rule="nonzero"></path></clipPath><clipPath id="SvgjsClipPath1139"><rect width="1000" height="1000" x="0" y="0" rx="500" ry="500"></rect></clipPath></defs><rect x="-37.5" width="450" fill="#ffffff" y="-37.499999" height="449.999989" fill-opacity="1"></rect><rect x="-37.5" width="450" fill="#000000" y="-37.499999" height="449.999989" fill-opacity="1"></rect><g clip-path="url(#c87afce364)"><path fill="#ffffff" d="M 123.789062 233.582031 C 106.742188 247.859375 92.875 259.765625 68.730469 259.765625 C 48.175781 259.765625 30.3125 243.859375 30.3125 224.121094 C 30.3125 192.0625 94.914062 174.609375 123.789062 161.964844 L 123.789062 110.496094 C 123.789062 102.582031 116.285156 95.8125 107.558594 95.8125 C 100.460938 95.8125 82.597656 107.3125 82.597656 121.179688 C 82.597656 131.867188 82.191406 143.367188 79.417969 152.828125 C 75.828125 165.472656 67.914062 175.015625 52.5 175.015625 C 40.589844 175.015625 31.128906 165.472656 31.128906 152.421875 C 31.128906 138.960938 45.402344 123.871094 65.550781 111.230469 C 83.414062 100.136719 105.519531 90.59375 126.5625 90.59375 C 148.75 90.59375 172.488281 104.460938 172.488281 123.464844 L 172.488281 274.367188 C 172.488281 317.925781 175.179688 342.476562 209.355469 342.476562 C 223.628906 342.476562 236.273438 332.609375 236.273438 318.332031 C 236.273438 308.054688 227.953125 304.464844 227.953125 294.1875 C 227.953125 279.914062 238.640625 269.636719 252.914062 269.636719 C 267.597656 269.636719 280.648438 279.179688 280.648438 293.78125 C 280.648438 328.609375 247.367188 348.433594 212.539062 348.433594 C 153.15625 348.433594 123.789062 292.558594 123.789062 250.957031 Z M 80.230469 214.984375 C 80.230469 228.035156 87.328125 241.496094 100.871094 241.496094 C 111.554688 241.496094 117.507812 235.132812 123.871094 228.445312 L 123.871094 165.472656 C 89.695312 178.117188 80.230469 189.617188 80.230469 214.984375 Z M 280.402344 130.316406 C 257.398438 130.316406 236.84375 147.773438 226.566406 157.640625 L 226.566406 26.5625 L 224.203125 26.5625 C 224.203125 26.5625 183.824219 40.425781 150.953125 44.425781 L 150.953125 47.199219 C 156.90625 50.785156 177.460938 65.0625 177.460938 76.890625 L 177.460938 111.472656 C 179.09375 115.308594 179.992188 119.304688 179.992188 123.464844 L 179.992188 274.367188 C 179.992188 283.175781 180.074219 291.742188 180.644531 299.410156 L 181.050781 299.410156 L 197.285156 279.179688 C 202.585938 283.09375 210.824219 288.152344 220.613281 292.148438 C 221.019531 284.238281 224.203125 277.222656 229.097656 272.003906 C 227.300781 265.230469 226.566406 257.484375 226.566406 249.082031 L 226.566406 162.453125 C 231.296875 157.316406 239.617188 151.363281 249.570312 151.363281 C 279.261719 151.363281 291.984375 188.230469 291.984375 213.191406 C 291.984375 240.761719 289.945312 263.03125 283.421875 277.628906 C 286.277344 282.035156 287.90625 287.09375 288.152344 292.558594 C 321.839844 278.039062 344.679688 242.882812 344.679688 204.542969 C 344.597656 166.371094 319.230469 130.316406 280.402344 130.316406 Z M 280.402344 130.316406 " fill-opacity="1" fill-rule="nonzero"></path></g><path fill="#000000" d="M 120.320312 363.925781 L 129.320312 363.925781 L 129.320312 366.925781 L 120.320312 366.925781 M 132.320312 363.925781 L 141.320312 363.925781 L 141.320312 366.925781 L 132.320312 366.925781 M 144.320312 363.925781 L 153.320312 363.925781 L 153.320312 366.925781 L 144.320312 366.925781 M 156.320312 363.925781 L 165.320312 363.925781 L 165.320312 366.925781 L 156.320312 366.925781 M 168.320312 363.925781 L 177.320312 363.925781 L 177.320312 366.925781 L 168.320312 366.925781 M 180.320312 363.925781 L 189.320312 363.925781 L 189.320312 366.925781 L 180.320312 366.925781 M 192.320312 363.925781 L 201.320312 363.925781 L 201.320312 366.925781 L 192.320312 366.925781 M 204.320312 363.925781 L 213.320312 363.925781 L 213.320312 366.925781 L 204.320312 366.925781 M 216.320312 363.925781 L 225.320312 363.925781 L 225.320312 366.925781 L 216.320312 366.925781 M 228.320312 363.925781 L 237.320312 363.925781 L 237.320312 366.925781 L 228.320312 366.925781 " fill-opacity="1" fill-rule="nonzero"></path></svg></svg></g></g></svg>